<svg xmlns="http://www.w3.org/2000/svg" viewBox="0 0 64 64">
  <g transform="rotate(-14 32 32)">
    <path d="M3 24a29 29 0 0 0 58 0z" fill="#2f9e44"/>
    <path d="M7 24a25 25 0 0 0 50 0z" fill="#d9f7c9"/>
    <path d="M10.5 24a21.5 21.5 0 0 0 43 0z" fill="#f2486a"/>
    <g fill="#2b1b1f">
      <ellipse cx="22" cy="31" rx="1.8" ry="2.8" transform="rotate(-25 22 31)"/>
      <ellipse cx="32" cy="36" rx="1.8" ry="2.8"/>
      <ellipse cx="42" cy="31" rx="1.8" ry="2.8" transform="rotate(25 42 31)"/>
      <ellipse cx="27" cy="27.5" rx="1.5" ry="2.3" transform="rotate(-10 27 27.5)"/>
      <ellipse cx="37" cy="27.5" rx="1.5" ry="2.3" transform="rotate(10 37 27.5)"/>
    </g>
  </g>
</svg>
